<svg id="signature" width="251" height="217" viewBox="0 0 251 217" fill="none" xmlns="http://www.w3.org/2000/svg">
<path d="M27 21C27 33.5218 27.1873 45.3271 24.2222 57.6111C20.8003 71.7876 18.5343 85.8345 17 100.333C15.2568 116.806 13.5796 134.707 7 150.111C2.66218 160.267 2 148.41 2 144.667C2 127.293 5.89731 110.542 10.5 93.8889C14.5107 79.3775 19.048 64.9536 24.2778 50.8333C29.1778 37.6034 34.3916 21.7195 44.6667 11.4444C47.7234 8.38767 52.8291 3.59111 57 2.11111C63.7634 -0.288791 66.2626 12.5762 66.7222 16.6667C69.0153 37.0751 66.4628 59.5376 53.8889 76.3333C48.9226 82.9671 42.9604 88.3842 36.1111 93C32.8914 95.1698 23.7878 97.2774 22.4444 101.056C20.6433 106.121 22.9581 113.321 24.7778 118C27.2425 124.338 29.5933 132.66 33.1111 138.444C34.6493 140.974 45.3892 161.032 46.7222 155.833C47.6528 152.204 47 147.834 47 144.111C47 142.092 50.7316 148.672 52 150C55.5585 153.726 69.3408 166.763 74 157.444C76.0198 153.405 84.294 133 74.7778 133C63.6465 133 61.1934 151.902 68.8889 157.556C73.5156 160.955 93.3367 167.643 97.8889 161.444C100.138 158.382 99 152.173 99 148.667C99 147.676 99 138.024 99 141.611C99 157.408 104 172.154 104 188C104 192.067 106.665 213.075 101.722 214.722C91.9108 217.993 83.0094 209.419 77 203C68.2204 193.622 71.8898 178.734 80.7778 170.667C85.7403 166.162 91.8769 162.146 97.7222 158.889C101.63 156.712 104.912 154.319 108.556 152.111C111.426 150.372 115.225 151.938 117.889 149.889C118.816 149.176 121.752 146.199 121.722 146.222C117.1 149.92 118.782 170.992 124.222 173.889C133.128 178.631 133.411 157.336 136.5 154C139.36 150.911 139 156.31 139 157.722C139 162.747 138.954 169.04 144 171.889C154.393 177.758 163.063 157.319 166.5 150.444C170.228 142.989 172.374 135.13 174 127C175.837 117.814 179.135 109.953 182.889 101.444C185.659 95.1648 183.225 105.318 183.111 105.889C180.943 116.789 176.926 127.13 175 138.111C173.326 147.655 171.09 157.163 170.278 166.833C169.914 171.156 168.139 182.166 170.889 186.222C173.052 189.413 179.925 181.306 181.333 180.222C186.567 176.193 190.6 174.294 191.722 167.111C192.005 165.3 191.172 158.556 194.5 158.556C196.886 158.556 200.537 166.317 202 168C204.785 171.202 205.567 175.341 208.111 178.444C210.959 181.919 217.606 179.227 220.667 177.722C231.845 172.225 237.713 168.98 249 175" stroke="black" stroke-width="3" stroke-linecap="round"/>
</svg>
